<svg width="266.818701171875px" height="122.021240234375px" xmlns="http://www.w3.org/2000/svg" viewBox="116.59064941406251 13.9893798828125 266.818701171875 122.021240234375" style="background: rgba(0, 0, 0, 0);" preserveAspectRatio="xMidYMid"><defs><filter id="editing-extrusion" x="-100%" y="-100%" width="300%" height="300%"><feFlood result="color1" flood-color="#444"></feFlood><feConvolveMatrix order="8,8" divisor="1" kernelMatrix="1 0 0 0 0 0 0 0 0 1 0 0 0 0 0 0 0 0 1 0 0 0 0 0 0 0 0 1 0 0 0 0 0 0 0 0 1 0 0 0 0 0 0 0 0 1 0 0 0 0 0 0 0 0 1 0 0 0 0 0 0 0 0 1" in="SourceAlpha" result="extrude"></feConvolveMatrix><feComposite in="color1" in2="extrude" result="comp-extrude" operator="in"></feComposite><feOffset dx="4" dy="4" in="comp-extrude" result="offset-extrude"></feOffset><feMerge><feMergeNode in="offset-extrude"></feMergeNode><feMergeNode in="SourceGraphic"></feMergeNode></feMerge></filter></defs><g filter="url(#editing-extrusion)"><g transform="translate(161.05156183242798, 97.15781211853027)"><path d="M2.69-39.68L2.69-39.68L2.69-39.68Q3.58-41.47 5.54-42.46L5.54-42.46L5.54-42.46Q7.49-43.46 10.18-43.46L10.18-43.46L10.18-43.46Q14.40-43.46 16.93-40.42L16.93-40.42L16.93-40.42Q19.46-37.38 19.46-30.72L19.46-30.72L19.46-7.87L34.11-42.18L41.66-42.18L43.39-9.79L43.20-7.94L58.43-42.18L67.20-42.18L46.72 0L33.09 0L31.81-19.46L23.36 0L7.94 0L6.02-30.72L6.02-30.72Q5.82-34.18 4.90-36.45L4.90-36.45L4.90-36.45Q3.97-38.72 2.69-39.68ZM97.41-13.25L97.41-13.25L97.41-13.25Q99.07-12.03 99.07-9.44L99.07-9.44L99.07-9.44Q99.07-6.85 97.95-5.02L97.95-5.02L97.95-5.02Q96.83-3.20 94.66-1.79L94.66-1.79L94.66-1.79Q89.98 1.22 81.82 1.22L81.82 1.22L81.82 1.22Q73.66 1.22 69.22-3.04L69.22-3.04L69.22-3.04Q64.77-7.30 64.77-14.85L64.77-14.85L64.77-14.85Q64.77-25.54 70.34-33.66L70.34-33.66L70.34-33.66Q74.56-39.68 82.11-42.24L82.11-42.24L82.11-42.24Q86.02-43.52 89.86-43.52L89.86-43.52L89.86-43.52Q93.70-43.52 96.06-43.01L96.06-43.01L96.06-43.01Q98.43-42.50 100.22-41.47L100.22-41.47L100.22-41.47Q104.13-39.23 104.13-35.65L104.13-35.65L104.13-35.65Q104.13-32.38 101.06-29.95L101.06-29.95L101.06-29.95Q98.24-27.78 95.94-27.78L95.94-27.78L95.94-27.78Q93.63-27.78 92.67-28.10L92.67-28.10L92.67-28.10Q92.93-30.40 92.93-31.90L92.93-31.90L92.93-31.90Q92.93-33.41 92.86-34.50L92.86-34.50L92.86-34.50Q92.80-35.58 92.48-36.61L92.48-36.61L92.48-36.61Q91.84-38.98 89.89-38.98L89.89-38.98L89.89-38.98Q87.94-38.98 85.98-37.15L85.98-37.15L85.98-37.15Q84.03-35.33 82.37-32.26L82.37-32.26L82.37-32.26Q78.59-25.28 78.59-17.02L78.59-17.02L78.59-17.02Q78.59-13.06 80.83-10.78L80.83-10.78L80.83-10.78Q83.07-8.51 87.87-8.51L87.87-8.51L87.87-8.51Q91.46-8.51 94.85-10.88L94.85-10.88L94.85-10.88Q96.32-11.90 97.41-13.25ZM125.12-23.10L125.12-23.10L125.12-23.10Q133.57-20.93 133.57-12.67L133.57-12.67L133.57-12.67Q133.57-6.72 128.51-2.82L128.51-2.82L128.51-2.82Q123.14 1.28 114.30 1.28L114.30 1.28L114.30 1.28Q109.06 1.28 105.92-0.74L105.92-0.74L105.92-0.74Q102.78-2.75 102.78-6.08L102.78-6.08L102.78-6.08Q102.78-9.41 105.28-11.46L105.28-11.46L105.28-11.46Q106.56-9.09 108.83-8L108.83-8L108.83-8Q111.10-6.91 114.02-6.91L114.02-6.91L114.02-6.91Q116.93-6.91 118.78-8.45L118.78-8.45L118.78-8.45Q120.64-9.98 120.64-12.99L120.64-12.99L120.64-12.99Q120.64-18.69 112.83-18.69L112.83-18.69L113.92-24.45L113.92-24.45Q123.26-25.98 123.26-30.59L123.26-30.59L123.26-30.59Q123.26-32.45 121.98-33.47L121.98-33.47L121.98-33.47Q120.70-34.50 118.27-34.50L118.27-34.50L118.27-34.50Q113.98-34.50 110.21-30.53L110.21-30.53L110.21-30.53Q108.99-30.85 108.48-31.71L108.48-31.71L108.48-31.71Q107.97-32.58 107.97-34.37L107.97-34.37L107.97-34.37Q107.97-36.16 109.25-37.86L109.25-37.86L109.25-37.86Q110.53-39.55 112.77-40.83L112.77-40.83L112.77-40.83Q117.57-43.52 124.03-43.52L124.03-43.52L124.03-43.52Q128.96-43.52 132.10-40.96L132.10-40.96L132.10-40.96Q135.36-38.34 135.36-34.43L135.36-34.43L135.36-34.43Q135.36-30.91 132.54-27.84L132.54-27.84L132.54-27.84Q129.73-24.77 125.12-23.10ZM140.03-39.68L140.03-39.68L140.03-39.68Q141.89-43.52 147.04-43.52L147.04-43.52L147.04-43.52Q152.19-43.52 154.59-40.54L154.59-40.54L154.59-40.54Q156.99-37.57 156.99-30.72L156.99-30.72L156.99-7.87L172.54-42.18L180.16-42.18L160.26 0L145.28 0L143.36-30.72L143.36-30.72Q143.17-34.11 142.24-36.42L142.24-36.42L142.24-36.42Q141.31-38.72 140.03-39.68Z" fill="#ccc"></path></g></g><style>text {
  font-size: 64px;
  font-family: Arial Black;
  dominant-baseline: central;
  text-anchor: middle;
}</style></svg>